<?xml version="1.0" encoding="UTF-8" standalone="no"?>
<!DOCTYPE svg PUBLIC "-//W3C//DTD SVG 1.1//EN" "http://www.w3.org/Graphics/SVG/1.1/DTD/svg11.dtd">
<svg width="100%" height="100%" viewBox="0 0 155 155" version="1.1" xmlns="http://www.w3.org/2000/svg" xmlns:xlink="http://www.w3.org/1999/xlink" xml:space="preserve" xmlns:serif="http://www.serif.com/" style="fill-rule:evenodd;clip-rule:evenodd;stroke-linejoin:round;stroke-miterlimit:2;">
    <g transform="matrix(1,0,0,1,12.5,0)">
        <path d="M0.4,119.12L24.21,100.88C36.86,117.39 50.3,125 65.26,125C80.14,125 93.2,117.48 105.28,101.1L129.43,118.9C112,142.52 90.34,155 65.26,155C40.26,155 18.39,142.6 0.4,119.12Z" style="fill:url(#_Linear1);fill-rule:nonzero;"/>
        <path d="M65.18,39.84L22.8,76.36L3.21,53.64L65.27,0.16L126.84,53.68L107.16,76.32L65.18,39.84Z" style="fill:url(#_Linear2);fill-rule:nonzero;"/>
    </g>
    <defs>
        <linearGradient id="_Linear1" x1="0" y1="0" x2="1" y2="0" gradientUnits="userSpaceOnUse" gradientTransform="matrix(129.03,0,0,129.03,0.4,137.687)"><stop offset="0" style="stop-color:rgb(137,48,253);stop-opacity:1"/><stop offset="1" style="stop-color:rgb(73,204,249);stop-opacity:1"/></linearGradient>
        <linearGradient id="_Linear2" x1="0" y1="0" x2="1" y2="0" gradientUnits="userSpaceOnUse" gradientTransform="matrix(123.63,0,0,123.63,3.21,51.9836)"><stop offset="0" style="stop-color:rgb(255,2,240);stop-opacity:1"/><stop offset="1" style="stop-color:rgb(255,200,0);stop-opacity:1"/></linearGradient>
    </defs>
</svg>
